<?xml version="1.0" encoding="UTF-8" standalone="no"?><!DOCTYPE svg PUBLIC "-//W3C//DTD SVG 1.1//EN" "http://www.w3.org/Graphics/SVG/1.1/DTD/svg11.dtd"><svg width="100%" height="100%" viewBox="0 0 1055 1055" version="1.1" xmlns="http://www.w3.org/2000/svg" xmlns:xlink="http://www.w3.org/1999/xlink" xml:space="preserve" xmlns:serif="http://www.serif.com/" style="fill-rule:evenodd;clip-rule:evenodd;stroke-miterlimit:10;"><g id="Layer_2"><g id="Layer_1-2"><path d="M974.133,388.367l-85.071,0c-2.779,-7.467 -5.904,-14.758 -9.029,-21.875l60.242,-60.242c26.525,-26.871 26.525,-70.7 0,-97.571l-97.05,-96.875c-26.888,-26.633 -70.854,-26.633 -97.742,0l-59.896,59.896c-7.292,-3.242 -14.642,-6.308 -22.05,-9.2l0,-84.721c0,-38.096 -31.35,-69.446 -69.446,-69.446l-136.804,0c-38.096,0 -69.446,31.35 -69.446,69.446l0,84.029c-7.637,2.95 -15.104,6.075 -22.571,9.375l-59.029,-59.55c-26.888,-26.633 -70.854,-26.633 -97.742,0l-96.7,96.7c-26.633,26.888 -26.633,70.854 0,97.742l59.2,59.2c-3.471,7.467 -6.596,15.104 -9.55,22.917l-83.854,0c-38.096,0 -69.446,31.35 -69.446,69.446l0,136.979c0,38.096 31.35,69.446 69.446,69.446l83.679,0c2.95,7.812 6.075,15.279 9.55,22.917l-59.2,58.679c-26.525,26.871 -26.525,70.7 0,97.571l96.7,96.875c26.887,26.633 70.854,26.633 97.742,0l59.55,-59.55c7.467,3.3 14.929,6.425 22.571,9.375l0,84.029c0,38.096 31.35,69.446 69.446,69.446l136.979,0c38.096,0 69.446,-31.35 69.446,-69.446l0,-84.375c7.408,-2.892 14.758,-5.962 22.05,-9.2l59.896,59.896c26.871,26.525 70.7,26.525 97.571,0l96.875,-96.875c26.525,-26.871 26.525,-70.7 0,-97.571l-60.242,-60.242c3.3,-7.117 6.25,-14.408 9.029,-21.875l85.071,0c38.096,0 69.446,-31.35 69.446,-69.446l0,-136.804c-0.192,-38.029 -31.587,-69.192 -69.617,-69.096l-0.004,-0.004Zm-448.958,380.729c-133.338,0 -243.054,-109.721 -243.054,-243.054c0,-133.338 109.721,-243.054 243.054,-243.054c133.337,0 243.054,109.721 243.054,243.054c0,133.337 -109.721,243.054 -243.054,243.054Z" style="fill:#e5eefd;fill-rule:nonzero;stroke:#3f669f;stroke-width:17.38px;"/></g></g></svg>