<?xml version="1.0" encoding="UTF-8" standalone="no"?><!DOCTYPE svg PUBLIC "-//W3C//DTD SVG 1.1//EN" "http://www.w3.org/Graphics/SVG/1.1/DTD/svg11.dtd"><svg width="100%" height="100%" viewBox="0 0 150 167" version="1.1" xmlns="http://www.w3.org/2000/svg" xmlns:xlink="http://www.w3.org/1999/xlink" xml:space="preserve" xmlns:serif="http://www.serif.com/" style="fill-rule:evenodd;clip-rule:evenodd;stroke-linejoin:round;stroke-miterlimit:2;"><path d="M113,149.063l-52.417,0l-26.167,-25.958l0,-46.083l78.583,0l0,72.042Z" style="fill:#355694;fill-rule:nonzero;"/><rect x="7.708" y="46.896" width="33.542" height="19.375" style="fill:#355694;stroke:#355694;stroke-width:4.17px;"/><path d="M115.292,27.813c0,-4.417 -2.292,-10.208 -5.417,-10.208l-74.5,0c-3.125,0 -4.417,5.792 -4.417,10.208l0,13.25l84.333,0l0,-13.25Z" style="fill:#355694;fill-rule:nonzero;"/><path d="M117.083,42.729l-88.333,0l0,-14.917c0,-5.667 1.625,-11.75 5.542,-11.75l76.083,0c4.167,0 6.708,6.833 6.708,11.75l0,14.917Zm-86.125,-3.083l83.75,0l0,-11.833c0,-3.833 -2.042,-8.667 -4.167,-8.667l-76.25,0c-2.292,0 -3.333,5.042 -3.333,8.667l0,11.833Z" style="fill:#badeff;fill-rule:nonzero;"/><path d="M136.208,39.896l-124.125,0c-6.583,0 -10.958,7.542 -10.958,12.833l0,42.5c0,7.625 5.583,15.458 13.167,15.458l18.875,0l0,12.042l26,26.292l54.167,0l0,-38.333l20.583,0c8.037,-0.694 14.339,-7.394 14.542,-15.458l0,-42.5c-0.535,-6.611 -5.671,-11.992 -12.25,-12.833Zm-118.958,22.708c-0.014,0 -0.028,0 -0.042,0c-3.223,0 -5.875,-2.652 -5.875,-5.875c0,-3.223 2.652,-5.875 5.875,-5.875c3.223,0 5.875,2.652 5.875,5.875c0,3.207 -2.626,5.852 -5.833,5.875Zm17.083,-1.542c-2.286,0 -4.167,-1.881 -4.167,-4.167c0,-2.286 1.881,-4.167 4.167,-4.167c2.286,0 4.167,1.881 4.167,4.167c0,2.286 -1.881,4.167 -4.167,4.167Zm79.167,88l-53.417,0l0,-26.667l-26.542,0l0,-41.25l79.583,0l0.375,67.917Z" style="fill:#355694;fill-rule:nonzero;"/><path d="M115.042,150.604l-56.542,0l0,-0.25l-26.125,-26.417l-0.375,0l0,-0.375l-0.292,-0.292l0,-11.125l-17.417,0c-8.667,-0 -14.708,-8.958 -14.708,-16.917l-0,-42.5c0,-5.875 4.875,-14.375 12.5,-14.375l124.167,0c7.429,0.827 13.253,6.917 13.75,14.375l-0,42.5c-0.185,8.901 -7.167,16.299 -16.042,17l-19.083,0l0.167,38.375Zm-53.458,-3.208l50.25,0l0,-21.667l-0.25,-43l-76.5,0l0,38.208l26.5,0l0,26.458Zm-25,-23.458l21.792,22.042l0,-22.042l-21.792,0Zm78.083,-14.833l19.167,0c7.208,-0.663 12.863,-6.641 13.125,-13.875l-0,-42.5c-0.508,-5.791 -4.991,-10.5 -10.75,-11.292l-124.125,0c-5.667,-0 -9.417,6.792 -9.417,11.292l-0,42.5c0,6.583 4.75,13.958 11.625,13.958l17.708,0l0,-29.583l82.625,0l0.042,29.5Zm-97.417,-45c-0.028,0 -0.055,0 -0.083,0c-4.069,0 -7.417,-3.348 -7.417,-7.417c0,-4.069 3.348,-7.417 7.417,-7.417c4.069,0 7.417,3.348 7.417,7.417c0,0.014 -0,0.027 -0,0.041c-0.022,4.022 -3.312,7.33 -7.333,7.375Zm17.083,-1.5c-3.109,0 -5.667,-2.558 -5.667,-5.667c0,-3.109 2.558,-5.667 5.667,-5.667c3.109,0 5.667,2.558 5.667,5.667c0,3.109 -2.558,5.667 -5.667,5.667Z" style="fill:#badeff;fill-rule:nonzero;"/></svg>